<svg width="195" height="37" viewBox="0 0 195 37" fill="none" xmlns="http://www.w3.org/2000/svg">
<path opacity="0.8" d="M53.5 24.4V27H42.66V13H53.24V15.6H45.88V18.64H52.38V21.16H45.88V24.4H53.5ZM59.3998 27.16C58.5065 27.16 57.6332 27.0533 56.7798 26.84C55.9265 26.6133 55.2465 26.3333 54.7398 26L55.7798 23.76C56.2598 24.0667 56.8398 24.32 57.5198 24.52C58.1998 24.7067 58.8665 24.8 59.5198 24.8C60.8398 24.8 61.4998 24.4733 61.4998 23.82C61.4998 23.5133 61.3198 23.2933 60.9598 23.16C60.5998 23.0267 60.0465 22.9133 59.2998 22.82C58.4198 22.6867 57.6932 22.5333 57.1198 22.36C56.5465 22.1867 56.0465 21.88 55.6198 21.44C55.2065 21 54.9998 20.3733 54.9998 19.56C54.9998 18.88 55.1932 18.28 55.5798 17.76C55.9798 17.2267 56.5532 16.8133 57.2998 16.52C58.0598 16.2267 58.9532 16.08 59.9798 16.08C60.7398 16.08 61.4932 16.1667 62.2398 16.34C62.9998 16.5 63.6265 16.7267 64.1198 17.02L63.0798 19.24C62.1332 18.7067 61.0998 18.44 59.9798 18.44C59.3132 18.44 58.8132 18.5333 58.4798 18.72C58.1465 18.9067 57.9798 19.1467 57.9798 19.44C57.9798 19.7733 58.1598 20.0067 58.5198 20.14C58.8798 20.2733 59.4532 20.4 60.2398 20.52C61.1198 20.6667 61.8398 20.8267 62.3998 21C62.9598 21.16 63.4465 21.46 63.8598 21.9C64.2732 22.34 64.4798 22.9533 64.4798 23.74C64.4798 24.4067 64.2798 25 63.8798 25.52C63.4798 26.04 62.8932 26.4467 62.1198 26.74C61.3598 27.02 60.4532 27.16 59.3998 27.16ZM76.9448 21.66C76.9448 21.7 76.9248 21.98 76.8848 22.5H68.7448C68.8915 23.1667 69.2382 23.6933 69.7848 24.08C70.3315 24.4667 71.0115 24.66 71.8248 24.66C72.3848 24.66 72.8782 24.58 73.3048 24.42C73.7448 24.2467 74.1515 23.98 74.5248 23.62L76.1848 25.42C75.1715 26.58 73.6915 27.16 71.7448 27.16C70.5315 27.16 69.4582 26.9267 68.5248 26.46C67.5915 25.98 66.8715 25.32 66.3648 24.48C65.8582 23.64 65.6048 22.6867 65.6048 21.62C65.6048 20.5667 65.8515 19.62 66.3448 18.78C66.8515 17.9267 67.5382 17.2667 68.4048 16.8C69.2848 16.32 70.2648 16.08 71.3448 16.08C72.3982 16.08 73.3515 16.3067 74.2048 16.76C75.0582 17.2133 75.7248 17.8667 76.2048 18.72C76.6982 19.56 76.9448 20.54 76.9448 21.66ZM71.3648 18.44C70.6582 18.44 70.0648 18.64 69.5848 19.04C69.1048 19.44 68.8115 19.9867 68.7048 20.68H74.0048C73.8982 20 73.6048 19.46 73.1248 19.06C72.6448 18.6467 72.0582 18.44 71.3648 18.44ZM85.962 26.48C85.6554 26.7067 85.2754 26.88 84.822 27C84.382 27.1067 83.9154 27.16 83.422 27.16C82.142 27.16 81.1487 26.8333 80.442 26.18C79.7487 25.5267 79.402 24.5667 79.402 23.3V18.88H77.742V16.48H79.402V13.86H82.522V16.48H85.202V18.88H82.522V23.26C82.522 23.7133 82.6354 24.0667 82.862 24.32C83.102 24.56 83.4354 24.68 83.862 24.68C84.3554 24.68 84.7754 24.5467 85.122 24.28L85.962 26.48ZM99.8175 27.24C97.8175 27.24 96.2575 26.6867 95.1375 25.58C94.0308 24.4733 93.4775 22.8933 93.4775 20.84V13H96.7175V20.72C96.7175 23.2267 97.7575 24.48 99.8375 24.48C100.851 24.48 101.624 24.18 102.158 23.58C102.691 22.9667 102.957 22.0133 102.957 20.72V13H106.158V20.84C106.158 22.8933 105.598 24.4733 104.478 25.58C103.371 26.6867 101.818 27.24 99.8175 27.24ZM115.499 16.08C116.499 16.08 117.406 16.3133 118.219 16.78C119.046 17.2333 119.693 17.88 120.159 18.72C120.626 19.5467 120.859 20.5133 120.859 21.62C120.859 22.7267 120.626 23.7 120.159 24.54C119.693 25.3667 119.046 26.0133 118.219 26.48C117.406 26.9333 116.499 27.16 115.499 27.16C114.126 27.16 113.046 26.7267 112.259 25.86V30.88H109.139V16.24H112.119V17.48C112.893 16.5467 114.019 16.08 115.499 16.08ZM114.959 24.6C115.759 24.6 116.413 24.3333 116.919 23.8C117.439 23.2533 117.699 22.5267 117.699 21.62C117.699 20.7133 117.439 19.9933 116.919 19.46C116.413 18.9133 115.759 18.64 114.959 18.64C114.159 18.64 113.499 18.9133 112.979 19.46C112.473 19.9933 112.219 20.7133 112.219 21.62C112.219 22.5267 112.473 23.2533 112.979 23.8C113.499 24.3333 114.159 24.6 114.959 24.6Z" fill="#1D1B1B"/>
<g clip-path="url(#clip0_2_563)">
<path d="M20.2107 0.539204C16.7919 -0.368451 13.166 -0.132275 9.89686 1.21099C6.62773 2.55426 3.89871 4.92932 2.13429 7.96671C0.369871 11.0041 -0.331025 14.5336 0.140625 18.0061C0.612276 21.4786 2.23003 24.6994 4.74225 27.1677L22.6286 9.46548C23.2974 8.80302 23.7782 7.978 24.0229 7.07331C24.2675 6.16862 24.2673 5.21613 24.0223 4.31154C23.7773 3.40696 23.296 2.58214 22.627 1.91997C21.9579 1.25779 21.1246 0.781588 20.2107 0.539204Z" fill="url(#paint0_linear_2_563)"/>
<path d="M6.78875 36.4598C10.2096 37.3704 13.8386 37.1357 17.1107 35.7922C20.3827 34.4488 23.1142 32.072 24.8796 29.032C26.6451 25.992 27.3455 22.4595 26.8717 18.9845C26.398 15.5095 24.7767 12.2871 22.2603 9.81909L4.37394 27.5336C3.70514 28.1958 3.22416 29.0206 2.97933 29.9251C2.7345 30.8296 2.73443 31.782 2.97913 32.6865C3.22383 33.591 3.70469 34.4159 4.3734 35.0782C5.0421 35.7406 5.87512 36.2171 6.78875 36.4598Z" fill="url(#paint1_linear_2_563)"/>
<path style="mix-blend-mode:multiply" d="M22.2603 9.81909L4.37394 27.5336C3.70514 28.1958 3.22416 29.0206 2.97933 29.9251C2.7345 30.8296 2.73443 31.7819 2.97913 32.6865C3.22383 33.591 3.70469 34.4159 4.3734 35.0782C5.0421 35.7406 5.87512 36.2171 6.78875 36.4598C8.70142 36.9647 10.6917 37.1166 12.6599 36.9078C4.81723 29.4391 22.2603 9.81909 22.2603 9.81909Z" fill="url(#paint2_linear_2_563)"/>
<g style="mix-blend-mode:multiply">
<path style="mix-blend-mode:multiply" d="M6.46017 36.3617C3.92136 28.58 19.1697 12.9092 21.8604 10.2273L4.37395 27.5336C3.72563 28.1755 3.25344 28.9705 3.00202 29.8433C2.7506 30.7162 2.72826 31.6381 2.93711 32.5219C3.14597 33.4057 3.57912 34.2222 4.19559 34.8941C4.81207 35.566 5.5915 36.0711 6.46017 36.3617Z" fill="url(#paint3_linear_2_563)"/>
<path style="mix-blend-mode:multiply" d="M22.2014 9.88972C22.22 9.86929 22.2396 9.84983 22.2603 9.83142L22.2014 9.88972Z" fill="url(#paint4_linear_2_563)"/>
</g>
<path style="mix-blend-mode:screen" d="M23.9404 7.36438L4.72113 27.1562L22.6292 9.4663C23.2273 8.87763 23.6766 8.15744 23.9404 7.36438Z" fill="url(#paint5_radial_2_563)"/>
</g>
<defs>
<linearGradient id="paint0_linear_2_563" x1="16.4102" y1="-16.6935" x2="10.5876" y2="20.6653" gradientUnits="userSpaceOnUse">
<stop stop-color="#0096D9"/>
<stop offset="1" stop-color="#DF006B"/>
</linearGradient>
<linearGradient id="paint1_linear_2_563" x1="9.13537" y1="13.6179" x2="18.5045" y2="32.4246" gradientUnits="userSpaceOnUse">
<stop stop-color="#DF006B"/>
<stop offset="1" stop-color="#00B2AB"/>
</linearGradient>
<linearGradient id="paint2_linear_2_563" x1="23.8071" y1="-3.42456" x2="6.08252" y2="38.1711" gradientUnits="userSpaceOnUse">
<stop stop-color="#3482C0"/>
<stop offset="0.45" stop-color="#96BEDE"/>
<stop offset="0.83" stop-color="#E1EDF6"/>
<stop offset="1" stop-color="white"/>
</linearGradient>
<linearGradient id="paint3_linear_2_563" x1="1361.37" y1="132.275" x2="-132.261" y2="2238.51" gradientUnits="userSpaceOnUse">
<stop stop-color="#3482C0"/>
<stop offset="0.45" stop-color="#96BEDE"/>
<stop offset="0.83" stop-color="#E1EDF6"/>
<stop offset="1" stop-color="white"/>
</linearGradient>
<linearGradient id="paint4_linear_2_563" x1="25.6732" y1="3.26796" x2="10.5951" y2="32.7124" gradientUnits="userSpaceOnUse">
<stop stop-color="#569FA1"/>
<stop offset="0.36" stop-color="#97C4C5"/>
<stop offset="0.8" stop-color="#E2EEEF"/>
<stop offset="1" stop-color="white"/>
</linearGradient>
<radialGradient id="paint5_radial_2_563" cx="0" cy="0" r="1" gradientUnits="userSpaceOnUse" gradientTransform="translate(21.5938 32.3819) scale(27.8184 27.5367)">
<stop stop-color="#FFFF00"/>
<stop offset="1"/>
</radialGradient>
<clipPath id="clip0_2_563">
<rect width="27" height="37" fill="white"/>
</clipPath>
</defs>
</svg>
